# xmcd
#
# Track frame offsets: 
#        150
#        12580
#        23710
#        36705
#        50537
#        62357
#        74652
#        85255
#        98602
#        111657
#        123540
#        137157
#        148247
#        159737
#        171092
#        184335
#        196090
#        206322
#        217735
#        230460
#        243605
#        257777
#
# Disc length: 3644 seconds
#
# Revision: 0
# Processed by: cddbd v1.5.2PL0 Copyright (c) Steve Scherf et al.
# Submitted via: ExactAudioCopy v0.99pb4
#
DISCID=4c0e3a16
DTITLE=Robert J Lockwood and Johnny Shines - Sweet home Chicago - The JO
DTITLE=B sessions 1951-1955
DYEAR=2001
DGENRE=Blues
TTITLE0=Dust my broom (Lockwood)
TTITLE1=Pearly B (Lockwood)
TTITLE2=Down home child (Lockwood)
TTITLE3=Leaving your town (no name blues) (Lockwood)
TTITLE4=Sunnyland special (Lockwood)
TTITLE5=You've gotta stop this mess (Lockwood)
TTITLE6=Glad I don't wurry no more (Lockwood)
TTITLE7=Mary Lee (Lockwood)
TTITLE8=That woman (Lockwood)
TTITLE9=Aw aw baby (Lockwood)
TTITLE10=Sweet woman from Maine (Lockwood)
TTITLE11=I believe I'll dust my broom (Lockwood)
TTITLE12=Ramblin' (Shines)
TTITLE13=Fish tail (Shines)
TTITLE14=Cool driver (Shines)
TTITLE15=Ain't doin' no good (Shines)
TTITLE16=Evening shuffle (Shines)
TTITLE17=Evening sun (Shines)
TTITLE18=No name blues (Shines)
TTITLE19=Brutal hearted woman (Shines)
TTITLE20=Gonna call the angel (Shines)
TTITLE21=Gonna call the angel (Shines)
EXTD=
EXTT0=
EXTT1=
EXTT2=
EXTT3=
EXTT4=
EXTT5=
EXTT6=
EXTT7=
EXTT8=
EXTT9=
EXTT10=
EXTT11=
EXTT12=
EXTT13=
EXTT14=
EXTT15=
EXTT16=
EXTT17=
EXTT18=
EXTT19=
EXTT20=
EXTT21=
PLAYORDER=
